<?xml version="1.0" encoding="utf-8"?>
<!-- Generator: Adobe Illustrator 27.1.1, SVG Export Plug-In . SVG Version: 6.00 Build 0)  -->
<svg version="1.1" id="Layer_1" xmlns="http://www.w3.org/2000/svg" xmlns:xlink="http://www.w3.org/1999/xlink" x="0px" y="0px"
	 viewBox="0 0 102.8 147.6" style="enable-background:new 0 0 102.8 147.6;" xml:space="preserve">
<g id="_x33_IZ2uo_00000094591343081946964950000012678587401668841106_">
	<g>
		<path d="M46.3,92c0-0.4-0.3-0.6-0.5-0.8c-1.9-1.9-2.1-3.6-0.5-5.7c0.5-0.6,0.5-1,0-1.6c-1.7-2.5-1.6-2.5-4.1-0.9
			c-5.4,3.4-10.8,6.8-16.2,10.1c-1.1,0.6-1.3,1.3-1,2.5c1.7,8,3.1,16,3.7,24.1c0.3,4-0.7,7.2-4,9.9c-4.1,3.3-8.3,6.5-12.6,9.7
			c-0.7,0.5-1.2,1.2-1.5,2.1c-0.4,1.4-1.5,2.4-2.7,3.2c-0.2,0.2-0.5,0.3-0.7,0.1c-0.2-0.2-0.2-0.5,0-0.7c1.1-1.7,1.9-3.5,3.4-5
			c5.1-4.8,10.1-9.6,15.2-14.4c0.5-0.5,0.6-0.9,0.5-1.6c-1.2-8-2.4-16-3.2-24.1c-0.1-1.3-0.2-2.6-0.4-3.9c-0.2-1.6,0.4-2.9,1.4-4.1
			c2.4-3,5.4-5.4,8.5-7.6c2.9-2.2,6-4.2,9.1-6.1c0.8-0.5,0.9-1,0.7-1.9c-0.4-1.1-0.8-2.1-0.9-3.2c-0.2-1.7-1-2.5-2.5-3.2
			c-4-1.7-7.9-3.6-11.7-5.5c-1.1-0.5-1.5-0.3-1.9,0.8c-3.7,9.9-7.5,19.8-12,29.4c-2.2,4.7-5,9-8.9,12.6c-0.4,0.4-0.8,0.8-1.3,1.1
			c-0.5,0.3-1.1,1.2-1.7,0.6c-0.5-0.4-0.1-1.3,0.2-1.9c0.4-1.1,1.1-2.1,2.2-2.6c2.4-1.1,3.7-3.1,4.8-5.4c1.8-3.7,2.6-7.7,3.9-11.6
			c2.7-8.2,5.1-16.4,8.7-24.2c0.3-0.6,0.6-1.2,0.9-1.8c0.5-0.8,1-1.5,2.2-0.9c0.7,0.4,1.6-0.1,2.5,0.1c4.4,0.8,8.3,2.7,12.1,4.9
			c0.1,0,0.2,0.1,0.2,0.1c2.1,1.3,2.1,1.2,2.5-1.2c0.2-1-0.3-1.1-1-1.3c-3.3-0.9-6.6-1.9-9.8-3c-3.4-1.2-5.7-3.4-7.1-6.6
			c-2.4-5.7-4.6-11.4-5.6-17.5c-0.4-2.8-0.5-5.8-0.6-8.6c-0.1-2.2-0.2-4.4-0.8-6.5c0-0.2-0.1-0.4-0.1-0.5c0-0.5-0.1-1.3,0.4-1.4
			c0.7-0.1,0.6,0.8,0.6,1.2c1.1,6.3,2.3,12.5,3.1,18.8c0.3,2.3,1.4,4.4,2.5,6.4c1.9,3.4,3.9,6.6,6.1,9.7c0.4,0.6,0.9,1.1,1.6,1.3
			c3.5,0.9,7.1,1.8,10.6,2.8c1.1,0.3,1.6,0.1,2.2-1c1.5-2.8,3.4-5.2,6.5-6.5c-0.1-0.3-0.4-0.3-0.6-0.4c-7-2-10.3-7.7-8.6-14.8
			c0.5-2.3,1.3-4.4,2.3-6.5c0.4-0.9,0.4-1.6-0.1-2.5c-3.8-6.7-7.4-13.4-11.7-19.8c-0.9-1.3-1.8-2.4-3.5-2.9
			c-1.5-0.4-2.6-1.5-3.4-2.9c-0.2-0.3-0.6-0.7-0.3-1.1c0.3-0.4,0.7-0.3,1.1-0.2c3,0.6,5.6,1.9,7.3,4.5c3.7,5.5,7.4,11.1,11.1,16.7
			c0.4,0.6,0.8,1.2,1.2,1.7c0.6-0.4,0.6-1,0.8-1.4c1-2.3,2.6-4,5.1-4.7c0.3-0.1,0.7-0.3,1,0.1c0.2,0.3-0.2,0.6-0.3,0.8
			c-0.3,0.5-0.7,0.8-0.6,1.5c1.2-0.2,2.5-0.5,3.8,0.2c0-0.9-0.5-1.3-0.8-1.8c-0.1-0.3-0.5-0.5-0.3-0.8c0.2-0.3,0.6-0.1,0.9-0.1
			c2.5,0.7,4.1,2.4,5.2,4.7c0.2,0.4,0.3,0.7,0.5,1.1c0,0,0.1,0,0.2,0.1c1.5-2.2,3-4.5,4.5-6.7c2.5-3.8,5-7.7,7.6-11.4
			c1.7-2.5,4.2-3.9,7.2-4.4c0.4-0.1,0.9-0.2,1.2,0.2c0.3,0.4-0.1,0.8-0.3,1.1c-1,1.4-2.2,2.6-3.9,3c-1,0.3-1.6,0.8-2.2,1.6
			c-3.1,4.3-5.6,8.9-8.3,13.4c-1.4,2.5-2.8,5-4.2,7.5c-0.4,0.7-0.4,1.3-0.1,2.1c1.4,3.3,2.8,6.6,2.8,10.2c0,4-1.1,7.6-4.7,9.9
			c-1.6,1.1-3.5,1.5-5.6,1.9c3.3,1.8,5.5,4.3,7.2,7.2c0.3,0.6,0.8,0.6,1.4,0.4c3.7-1,7.4-1.9,11.1-2.9c0.5-0.1,1-0.4,1.3-0.8
			c2.8-4,5.5-8.2,7.7-12.6c1.6-3.2,1.5-6.7,2.1-10.1c0.8-4.3,1.5-8.6,2.2-12.9c0.1-0.4,0-1.1,0.6-1c0.6,0.1,0.5,0.8,0.5,1.2
			c-0.1,1.6-0.7,3.2-0.8,4.9c-0.1,3.6-0.3,7.1-0.6,10.7c-0.5,4.5-2.2,8.7-3.6,12.9c-0.8,2.3-1.8,4.6-3,6.7c-1,1.9-2.5,3.2-4.4,4.1
			c-3.6,1.6-7.4,2.7-11.3,3.7c-0.4,0.1-1.2,0.1-1.2,0.6c0,0.8,0.1,1.7,0.5,2.5c0.2,0.5,0.7-0.1,1-0.2c2.7-1.6,5.4-3,8.4-4.1
			c2.1-0.8,4.2-1.5,6.5-1.2c0,0,0.1,0,0.1,0c0.6,0.1,1-0.8,1.7-0.3c0.8,0.7,1.3,1.6,1.7,2.5c2.7,5.7,4.7,11.7,6.6,17.7
			c1.5,4.5,2.8,9,4.2,13.5c0.7,2.1,1.5,4.2,2.6,6.2c1,1.7,2.1,3.2,4.1,4.1c1.4,0.6,2.2,1.8,2.5,3.3c0.1,0.4,0.3,0.9-0.1,1.2
			c-0.4,0.3-0.8-0.1-1.1-0.3c-0.4-0.2-0.7-0.5-1.1-0.8c-3.4-3.1-6.3-6.5-8.3-10.7c-4.7-9.3-8.4-18.9-12.1-28.6
			c-0.5-1.2-1-2.5-1.4-3.8c-0.2-0.7-0.6-0.9-1.3-0.6c-4.5,2.1-9,4.2-13.5,6.3c-0.5,0.2-0.7,0.6-0.8,1.1c-0.3,1.3-0.5,2.6-0.9,3.9
			c-0.3,0.9-0.1,1.4,0.7,1.9c4.5,2.8,9,5.8,13.2,9.1c1.2,0.9,2.2,2,3.4,3c2.8,2.3,3.6,5.2,3.2,8.8c-1.1,8.3-2.1,16.6-3.4,24.9
			c-0.2,1.1,0.1,1.8,0.9,2.6c4.6,4.3,9.2,8.7,13.8,13c1.7,1.6,2.9,3.6,4.1,5.6c0.2,0.3,0.5,0.7,0.1,1.1c-0.3,0.3-0.7,0-1-0.2
			c-1.1-0.8-2.1-1.8-2.4-3.1c-0.3-0.9-0.8-1.4-1.5-2c-4-3-7.9-6-11.9-9c-3.9-2.9-5.1-6.6-4.7-11.3c0.7-7.9,2.1-15.8,3.7-23.6
			c0.2-1,0-1.6-0.9-2.2c-6.1-3.8-12.2-7.7-18.3-11.6c-0.9-0.6-1.6-0.7-2,0.5c-0.1,0.2-0.2,0.4-0.3,0.6c-1,1.1-1.2,2.1-0.1,3.4
			c1.1,1.2,0.9,3-0.2,4.3c-0.4,0.5-0.9,0.9-1.3,1.3c0.1,0.5,0.4,0.4,0.7,0.4c5.8,1.3,9.5,5,11.4,10.6c2.5,7.6,2.5,15.4,0.3,23.1
			c-1.8,6.2-4.7,11.9-9,16.8c-1.4,1.6-3,3-4.8,4c-2,1.1-3.9,1.2-6,0.1c-3-1.5-5.4-3.8-7.5-6.4c-5.2-6.5-8.9-13.7-9.7-22
			c-0.6-5.9,0-11.8,2.3-17.4c1.9-4.6,5.2-7.5,10.1-8.7C45.4,92.2,45.8,92.1,46.3,92z"/>
	</g>
</g>
</svg>
